<svg width="128" height="128" viewBox="0 0 128 128" fill="none" xmlns="http://www.w3.org/2000/svg">
<rect x="0.5" y="0.5" width="127" height="127" rx="31.5" fill="#101828" stroke="#101828"/>
<path d="M28.0661 63.6854C30.1921 60.8923 32.4901 58.0602 34.9458 55.2167C31.109 50.102 27.8574 45.1294 25.2783 40.4708C23.0608 44.1124 21.3425 48.0915 20.2185 52.3129C22.4752 55.9778 25.1038 59.7937 28.0661 63.6854Z" fill="white"/>
<path d="M20.1435 29.174C18.7013 24.9085 18.1165 21.174 18.4962 18.1816C16.3491 18.454 14.584 19.223 13.279 20.528C9.76819 24.0388 10.137 30.8786 13.6154 39.5293C15.4147 35.8315 17.609 32.3614 20.1435 29.174Z" fill="white"/>
<path d="M64 41.4182C67.8528 44.7033 71.7319 48.2814 75.5679 52.1174C79.404 55.9535 82.9821 59.8326 86.2672 63.6854C88.6942 60.8389 90.9613 58.0067 93.0542 55.2167C89.9842 51.662 86.6675 48.0897 83.1316 44.5538C79.5958 41.0179 76.0234 37.7012 72.4687 34.6312C69.6252 32.1754 66.7931 29.8775 64 27.7515C60.2023 24.8607 56.4768 22.2878 52.8934 20.0681C48.3262 17.239 43.9898 14.9837 40.0286 13.3755C31.2907 9.82782 24.3784 9.42866 20.8427 12.9644C19.5376 14.2695 18.7687 16.0345 18.4962 18.1816C21.5025 17.8001 25.2576 18.3921 29.5477 19.8489C33.0176 21.0272 36.8374 22.7714 40.8939 25.0238C45.5211 27.5932 50.4563 30.8241 55.5313 34.6312C58.3213 36.7241 61.1535 38.9912 64 41.4182Z" fill="white"/>
<path d="M88.6852 114.28C84.7393 112.738 80.4034 110.535 75.8255 107.744C72.0225 105.427 68.0524 102.704 64 99.6193C61.207 97.4933 58.3748 95.1953 55.5313 92.7396C51.9766 89.6695 48.4042 86.3528 44.8684 82.817C41.3325 79.2811 38.0158 75.7087 34.9458 72.1541C37.0387 69.3641 39.3058 66.5319 41.7328 63.6854C45.0179 67.5382 48.596 71.4173 52.4321 75.2534C56.2681 79.0894 60.1472 82.6675 64 85.9526C66.8465 88.3796 69.6787 90.6466 72.4687 92.7396C77.7434 96.6965 82.8671 100.031 87.651 102.647C91.723 104.874 95.5488 106.581 99.012 107.708C103.069 109.029 106.629 109.554 109.504 109.189C109.231 111.336 108.462 113.101 107.157 114.406C103.718 117.845 97.0855 117.562 88.6852 114.28Z" fill="white"/>
<path fill-rule="evenodd" clip-rule="evenodd" d="M107.897 75.2454C106.806 79.5149 105.109 83.5418 102.903 87.2289C100.296 82.4758 96.9815 77.3893 93.0542 72.1541C95.51 69.3106 97.8079 66.4784 99.9339 63.6854C102.947 67.6435 105.614 71.5232 107.897 75.2454Z" fill="white"/>
<path fill-rule="evenodd" clip-rule="evenodd" d="M108.004 98.6399C110.541 95.4218 112.732 91.9186 114.522 88.1863C117.872 96.6738 118.185 103.379 114.721 106.843C113.416 108.148 111.651 108.917 109.504 109.189C109.87 106.301 109.338 102.721 108.004 98.6399Z" fill="white"/>
<path fill-rule="evenodd" clip-rule="evenodd" d="M13.478 88.1864C15.0462 84.2135 17.2799 79.8499 20.1033 75.2454C22.3856 71.5232 25.0532 67.6436 28.0661 63.6854C30.1921 60.8923 32.4901 58.0602 34.9458 55.2167C38.0159 51.662 41.3326 48.0896 44.8684 44.5538C48.4043 41.0179 51.9767 37.7012 55.5313 34.6312C58.3213 36.7241 61.1535 38.9912 64 41.4182C60.1472 44.7033 56.2681 48.2814 52.432 52.1174C48.596 55.9535 45.0179 59.8326 41.7328 63.6854C39.3058 66.5319 37.0387 69.3641 34.9458 72.1541C31.0185 77.3893 27.7044 82.4758 25.097 87.2289C22.8536 91.3185 21.1335 95.1614 19.9961 98.6399C18.6617 102.721 18.1297 106.301 18.4962 109.189C16.3491 108.917 14.5841 108.148 13.279 106.843C9.81501 103.379 10.1279 96.6739 13.478 88.1864Z" fill="white"/>
<path fill-rule="evenodd" clip-rule="evenodd" d="M28.988 107.708C32.1649 110.256 35.6255 112.465 39.3148 114.28C30.9146 117.562 24.2816 117.845 20.8426 114.406C19.5376 113.101 18.7686 111.336 18.4962 109.189C21.371 109.554 24.9307 109.029 28.988 107.708Z" fill="white"/>
<path fill-rule="evenodd" clip-rule="evenodd" d="M55.5313 92.7396C58.3748 95.1953 61.207 97.4933 64 99.6193C59.9476 102.704 55.9775 105.427 52.1745 107.744C47.9574 106.607 43.9839 104.876 40.349 102.647C45.1329 100.031 50.2566 96.6965 55.5313 92.7396Z" fill="white"/>
<path fill-rule="evenodd" clip-rule="evenodd" d="M102.722 40.4708C104.958 36.4317 106.688 32.6287 107.857 29.174C109.299 24.9085 109.884 21.174 109.504 18.1816C111.651 18.454 113.416 19.223 114.721 20.528C118.232 24.0388 117.863 30.8786 114.385 39.5292C112.803 43.4635 110.577 47.7723 107.782 52.3129C105.525 55.9778 102.896 59.7936 99.9339 63.6854C97.8079 66.4784 95.51 69.3106 93.0542 72.1541C89.9842 75.7087 86.6675 79.2811 83.1316 82.817C79.5957 86.3529 76.0234 89.6695 72.4687 92.7396C69.6787 90.6466 66.8465 88.3796 64 85.9526C67.8528 82.6675 71.7319 79.0894 75.568 75.2533C79.404 71.4173 82.9821 67.5382 86.2672 63.6854C88.6942 60.8389 90.9613 58.0067 93.0542 55.2167C96.8911 50.102 100.143 45.1294 102.722 40.4708Z" fill="white"/>
<path fill-rule="evenodd" clip-rule="evenodd" d="M98.4523 19.8489C95.2238 17.3261 91.7116 15.1496 87.9714 13.3755C96.7094 9.8278 103.622 9.42863 107.157 12.9644C108.462 14.2694 109.231 16.0345 109.504 18.1816C106.498 17.8001 102.742 18.3921 98.4523 19.8489Z" fill="white"/>
<path fill-rule="evenodd" clip-rule="evenodd" d="M75.1066 20.0681C79.3803 21.1451 83.4125 22.8294 87.1061 25.0238C82.4789 27.5932 77.5437 30.8241 72.4687 34.6312C69.6252 32.1754 66.7931 29.8775 64 27.7515C67.7978 24.8607 71.5232 22.2878 75.1066 20.0681Z" fill="white"/>
<path d="M87.651 102.647C91.723 104.874 95.5488 106.581 99.012 107.708C102.342 105.037 105.361 101.993 108.004 98.6399C110.541 95.4218 112.732 91.9186 114.522 88.1863C118.033 80.865 120 72.6622 120 64C120 55.2255 117.982 46.9223 114.385 39.5292C112.803 43.4635 110.577 47.7723 107.782 52.3129C108.774 56.0414 109.303 59.9589 109.303 64C109.303 67.8818 108.815 71.6496 107.897 75.2454C106.806 79.5149 105.109 83.5418 102.903 87.2289C99.1399 93.5176 93.8951 98.8179 87.651 102.647Z" fill="white"/>
<path d="M88.6852 114.28C84.7393 112.738 80.4034 110.535 75.8255 107.744C72.0556 108.761 68.0912 109.303 64 109.303C59.9089 109.303 55.9444 108.761 52.1745 107.744C47.9574 106.607 43.9839 104.876 40.349 102.647C34.1049 98.8179 28.8601 93.5177 25.097 87.2289C22.8536 91.3185 21.1335 95.1614 19.9961 98.6399C22.6395 101.993 25.6578 105.037 28.988 107.708C32.1649 110.256 35.6255 112.465 39.3148 114.28C46.7616 117.943 55.1405 120 64 120C72.8595 120 81.2384 117.943 88.6852 114.28Z" fill="white"/>
<path d="M25.2783 40.4708C29.1381 34.1324 34.5104 28.8163 40.8939 25.0238C36.8374 22.7714 33.0176 21.0272 29.5477 19.8489C26.0578 22.576 22.8995 25.7079 20.1435 29.174C17.609 32.3614 15.4147 35.8315 13.6154 39.5293C10.0181 46.9223 8 55.2255 8 64C8 72.6622 9.96673 80.8651 13.478 88.1864C15.0462 84.2135 17.2799 79.8499 20.1033 75.2454C19.1849 71.6497 18.6966 67.8819 18.6966 64C18.6966 59.9589 19.2257 56.0414 20.2185 52.3129C21.3425 48.0915 23.0608 44.1124 25.2783 40.4708Z" fill="white"/>
<path d="M87.1061 25.0238C93.4896 28.8163 98.8619 34.1324 102.722 40.4708C104.958 36.4317 106.688 32.6287 107.857 29.174C105.1 25.7079 101.942 22.576 98.4523 19.8489C95.2238 17.3261 91.7116 15.1496 87.9714 13.3755C80.7046 9.92846 72.5775 8 64 8C55.4225 8 47.2954 9.92846 40.0286 13.3755C43.9898 14.9837 48.3262 17.239 52.8934 20.0681C56.4472 19.1724 60.1681 18.6966 64 18.6966C67.832 18.6966 71.5528 19.1724 75.1066 20.0681C79.3803 21.1451 83.4125 22.8294 87.1061 25.0238Z" fill="white"/>
<path d="M25.2783 40.4708C29.1381 34.1324 34.5104 28.8163 40.8939 25.0238M20.1033 75.2454C19.1849 71.6497 18.6966 67.8819 18.6966 64C18.6966 59.9589 19.2257 56.0414 20.2185 52.3129C21.3425 48.0915 23.0608 44.1124 25.2783 40.4708M25.2783 40.4708C27.8574 45.1294 31.109 50.102 34.9458 55.2167M55.5313 34.6312C50.4563 30.8241 45.5211 27.5932 40.8939 25.0238C36.8374 22.7714 33.0176 21.0272 29.5477 19.8489C25.2576 18.3921 21.5025 17.8001 18.4962 18.1816M13.478 88.1864C9.96673 80.8651 8 72.6622 8 64C8 55.2255 10.0181 46.9223 13.6154 39.5293C15.4147 35.8315 17.609 32.3614 20.1435 29.174C22.8995 25.7079 26.0578 22.576 29.5477 19.8489M20.1435 29.174C18.7013 24.9085 18.1165 21.174 18.4962 18.1816M13.6154 39.5293C10.137 30.8786 9.76819 24.0388 13.279 20.528C14.584 19.223 16.3491 18.454 18.4962 18.1816M28.0661 63.6854C25.0532 67.6436 22.3856 71.5232 20.1033 75.2454C17.2799 79.8499 15.0462 84.2135 13.478 88.1864M13.478 88.1864C10.1279 96.6739 9.81501 103.379 13.279 106.843C14.5841 108.148 16.3491 108.917 18.4962 109.189M20.2185 52.3129C22.4752 55.9778 25.1038 59.7937 28.0661 63.6854M87.1061 25.0238C93.4896 28.8163 98.8619 34.1324 102.722 40.4708M87.1061 25.0238C83.4125 22.8294 79.3803 21.1451 75.1066 20.0681M87.1061 25.0238C82.4789 27.5932 77.5437 30.8241 72.4687 34.6312M64 85.9526C67.8528 82.6675 71.7319 79.0894 75.568 75.2533C79.404 71.4173 82.9821 67.5382 86.2672 63.6854C88.6942 60.8389 90.9613 58.0067 93.0542 55.2167C96.8911 50.102 100.143 45.1294 102.722 40.4708C104.958 36.4317 106.688 32.6287 107.857 29.174M107.857 29.174C105.1 25.7079 101.942 22.576 98.4523 19.8489M107.857 29.174C109.299 24.9085 109.884 21.174 109.504 18.1816M40.0286 13.3755C47.2954 9.92846 55.4225 8 64 8C72.5775 8 80.7046 9.92846 87.9714 13.3755C91.7116 15.1496 95.2238 17.3261 98.4523 19.8489M98.4523 19.8489C102.742 18.3921 106.498 17.8001 109.504 18.1816M87.9714 13.3755C96.7094 9.8278 103.622 9.42863 107.157 12.9644C108.462 14.2694 109.231 16.0345 109.504 18.1816M72.4687 34.6312C69.6252 32.1754 66.7931 29.8775 64 27.7515C60.2023 24.8607 56.4768 22.2878 52.8934 20.0681C48.3262 17.239 43.9898 14.9837 40.0286 13.3755M40.0286 13.3755C31.2907 9.82782 24.3784 9.42866 20.8427 12.9644C19.5376 14.2695 18.7687 16.0345 18.4962 18.1816M52.8934 20.0681C56.4472 19.1724 60.1681 18.6966 64 18.6966C67.832 18.6966 71.5528 19.1724 75.1066 20.0681M75.1066 20.0681C71.5232 22.2878 67.7978 24.8607 64 27.7515M55.5313 34.6312C51.9767 37.7012 48.4043 41.0179 44.8684 44.5538C41.3326 48.0896 38.0159 51.662 34.9458 55.2167C32.4901 58.0602 30.1921 60.8923 28.0661 63.6854M64 41.4182C67.8528 44.7033 71.7319 48.2814 75.5679 52.1174C79.404 55.9535 82.9821 59.8326 86.2672 63.6854M64 41.4182C61.1535 38.9912 58.3213 36.7241 55.5313 34.6312M34.9458 72.1541C37.0387 69.3641 39.3058 66.5319 41.7328 63.6854C45.0179 59.8326 48.596 55.9535 52.432 52.1174C56.2681 48.2814 60.1472 44.7033 64 41.4182M93.0542 55.2167C89.9842 51.662 86.6675 48.0897 83.1316 44.5538C79.5958 41.0179 76.0234 37.7012 72.4687 34.6312M109.504 109.189C109.231 111.336 108.462 113.101 107.157 114.406C103.718 117.845 97.0855 117.562 88.6852 114.28C84.7393 112.738 80.4034 110.535 75.8255 107.744M88.6852 114.28C81.2384 117.943 72.8595 120 64 120C55.1405 120 46.7616 117.943 39.3148 114.28M75.8255 107.744C72.0225 105.427 68.0524 102.704 64 99.6193M25.097 87.2289C28.8601 93.5177 34.1049 98.8179 40.349 102.647C43.9839 104.876 47.9574 106.607 52.1745 107.744C55.9444 108.761 59.9089 109.303 64 109.303C68.0912 109.303 72.0556 108.761 75.8255 107.744M34.9458 72.1541C38.0158 75.7087 41.3325 79.2811 44.8684 82.817C48.4042 86.3528 51.9766 89.6695 55.5313 92.7396C58.3748 95.1953 61.207 97.4933 64 99.6193M64 99.6193C59.9476 102.704 55.9775 105.427 52.1745 107.744M55.5313 92.7396C50.2566 96.6965 45.1329 100.031 40.349 102.647M18.4962 109.189C18.1297 106.301 18.6617 102.721 19.9961 98.6399C21.1335 95.1614 22.8536 91.3185 25.097 87.2289C27.7044 82.4758 31.0185 77.3893 34.9458 72.1541M41.7328 63.6854C45.0179 67.5382 48.596 71.4173 52.4321 75.2534C56.2681 79.0894 60.1472 82.6675 64 85.9526M109.504 109.189C106.629 109.554 103.069 109.029 99.012 107.708C95.5488 106.581 91.723 104.874 87.651 102.647C82.8671 100.031 77.7434 96.6965 72.4687 92.7396C69.6787 90.6466 66.8465 88.3796 64 85.9526M99.9339 63.6854C97.8079 66.4784 95.51 69.3106 93.0542 72.1541C89.9842 75.7087 86.6675 79.2811 83.1316 82.817C79.5957 86.3529 76.0234 89.6695 72.4687 92.7396M107.897 75.2454C106.806 79.5149 105.109 83.5418 102.903 87.2289C99.1399 93.5176 93.8951 98.8179 87.651 102.647M114.522 88.1863C112.732 91.9186 110.541 95.4218 108.004 98.6399C105.361 101.993 102.342 105.037 99.012 107.708M109.504 109.189C111.651 108.917 113.416 108.148 114.721 106.843C118.185 103.379 117.872 96.6738 114.522 88.1863M109.504 109.189C109.87 106.301 109.338 102.721 108.004 98.6399M39.3148 114.28C35.6255 112.465 32.1649 110.256 28.988 107.708M39.3148 114.28C30.9146 117.562 24.2816 117.845 20.8426 114.406C19.5376 113.101 18.7686 111.336 18.4962 109.189M28.988 107.708C25.6578 105.037 22.6395 101.993 19.9961 98.6399M28.988 107.708C24.9307 109.029 21.371 109.554 18.4962 109.189M107.897 75.2454C105.614 71.5232 102.947 67.6435 99.9339 63.6854M107.897 75.2454C108.815 71.6496 109.303 67.8818 109.303 64C109.303 59.9589 108.774 56.0414 107.782 52.3129M102.903 87.2289C100.296 82.4758 96.9815 77.3893 93.0542 72.1541M114.385 39.5292C112.803 43.4635 110.577 47.7723 107.782 52.3129C105.525 55.9778 102.896 59.7936 99.9339 63.6854M114.522 88.1863C118.033 80.865 120 72.6622 120 64C120 55.2255 117.982 46.9223 114.385 39.5292M109.504 18.1816C111.651 18.454 113.416 19.223 114.721 20.528C118.232 24.0388 117.863 30.8786 114.385 39.5292" stroke="#101828" stroke-width="4"/>
</svg>
